# xmcd
#
# Track frame offsets: 
#        150
#        23557
#        40015
#        55566
#        73995
#        100911
#        119779
#        148211
#        168697
#        183595
#        204520
#        217504
#        238133
#        261738
#        288548
#        303779
#
# Disc length: 4509 seconds
#
# Revision: 0
# Processed by: cddbd v1.5.2PL0 Copyright (c) Steve Scherf et al.
# Submitted via: ExactAudioCopy v0.95a5
#
DISCID=f6119b10
DTITLE=Various Artist - Blues 1000% Vol.5
DYEAR=2002
DGENRE=Blues
TTITLE0=TONY JOE WHITE - GOOD IN BLUES
TTITLE1=ERIC CLAPTON - WONDERFUL TONIGHT
TTITLE2=B.B.KING - BLUES BOYS TUN
TTITLE3=JOHN MAYALL - ROT AT HOME
TTITLE4=THE ROBERT CRAY BAND - BACK HOME
TTITLE5=LITTLE BLUE - COLD RAIN
TTITLE6=JOHNNY WINTER - LIFE IS HARD
TTITLE7=ALVIN LEE - REAL LIFE BLUES
TTITLE8=LUTHER ALLISON - NIGHT LIFE
TTITLE9=ROBIN TROWER - I WANT YOU TO LOVE ME
TTITLE10=PETER GREEN - BANDIT
TTITLE11=CAREY BELL - HARD WORKING WOMAN
TTITLE12=JUNIOR WELLS - USE ME
TTITLE13=GIL PARRIS - A RAINY NIGHT IN GEORGIA
TTITLE14=BILL SIMS - WHED DO I GET TO BE CALLED A MAN
TTITLE15=JONNY LANG - NICE AND WARM
EXTD=
EXTT0=
EXTT1=
EXTT2=
EXTT3=
EXTT4=
EXTT5=
EXTT6=
EXTT7=
EXTT8=
EXTT9=
EXTT10=
EXTT11=
EXTT12=
EXTT13=
EXTT14=
EXTT15=
PLAYORDER=
